<svg xmlns="http://www.w3.org/2000/svg" viewBox="0 0 256 256" role="img" aria-label="Vite logo">
  <defs>
    <linearGradient id="a" x1="-.5%" x2="83.1%" y1="8.2%" y2="86.6%">
      <stop offset="0%" stop-color="#41d1ff"/>
      <stop offset="100%" stop-color="#bd34fe"/>
    </linearGradient>
    <linearGradient id="b" x1="43.8%" x2="50%" y1="-.5%" y2="96.4%">
      <stop offset="0%" stop-color="#ffea83"/>
      <stop offset="8.1%" stop-color="#ffdd35"/>
      <stop offset="100%" stop-color="#ffa800"/>
    </linearGradient>
  </defs>
  <path fill="url(#a)" d="M255.7 54.8 138.3 239.1c-2.4 3.8-7.9 3.8-10.3 0L.3 54.8c-2.7-4.1.3-9.5 5.2-9.2l121.1 7.8c1.4.1 2.7.7 3.6 1.7l121.1-7.8c4.9-.3 7.9 5.1 5.2 9.2Z"/>
  <path fill="url(#b)" d="m185.7 2.3-89.5 17-3.4 60.3 43.2-8.4-39.4 74.7 12.8 1.8 61-84.8-40.2 7.8 55.5-68.4Z"/>
</svg>
